<svg width="1024" height="1024" viewBox="0 0 1024 1024" fill="none" xmlns="http://www.w3.org/2000/svg">
<g filter="url(#filter0_i_69_279)">
<path d="M670 254C658 239.333 630.6 207.4 617 197L525 289L406 385L369 654L507 730L702 509L670 254Z" fill="#D9D9D9"/>
<path d="M670 254C658 239.333 630.6 207.4 617 197L525 289L406 385L369 654L507 730L702 509L670 254Z" fill="url(#paint0_linear_69_279)"/>
</g>
<path d="M670 254C658 239.333 630.6 207.4 617 197L525 289L406 385L369 654L507 730L702 509L670 254Z" stroke="url(#paint1_linear_69_279)" stroke-width="3"/>
<path d="M511.964 130C552.938 130 591.822 147.101 626.74 176.07L570.83 319.486L640.852 374.441L439 449.982L469.937 586.271L458 646L491.511 586.271L472.361 461.541L683 386L611.191 315.729L664.899 214.152C737.89 300.196 785.928 438.856 785.928 565.775C785.928 768.662 663.177 864.61 511.964 864.61C360.75 864.61 238 768.662 238 565.775C238 362.889 360.75 130 511.964 130Z" fill="url(#paint2_radial_69_279)"/>
<defs>
<filter id="filter0_i_69_279" x="367.375" y="195.011" width="336.199" height="540.883" filterUnits="userSpaceOnUse" color-interpolation-filters="sRGB">
<feFlood flood-opacity="0" result="BackgroundImageFix"/>
<feBlend mode="normal" in="SourceGraphic" in2="BackgroundImageFix" result="shape"/>
<feColorMatrix in="SourceAlpha" type="matrix" values="0 0 0 0 0 0 0 0 0 0 0 0 0 0 0 0 0 0 127 0" result="hardAlpha"/>
<feOffset dy="4"/>
<feGaussianBlur stdDeviation="2"/>
<feComposite in2="hardAlpha" operator="arithmetic" k2="-1" k3="1"/>
<feColorMatrix type="matrix" values="0 0 0 0 0.616079 0 0 0 0 0.5998 0 0 0 0 0.5998 0 0 0 1 0"/>
<feBlend mode="normal" in2="shape" result="effect1_innerShadow_69_279"/>
</filter>
<linearGradient id="paint0_linear_69_279" x1="652" y1="233" x2="387.924" y2="496.528" gradientUnits="userSpaceOnUse">
<stop stop-color="#C5B4AB"/>
<stop offset="0.0446391" stop-color="#CCC7C7"/>
<stop offset="0.129733" stop-color="#C5B4AB"/>
<stop offset="0.395" stop-color="#5B6567"/>
<stop offset="0.87419" stop-color="#4D423E"/>
</linearGradient>
<linearGradient id="paint1_linear_69_279" x1="643.5" y1="206" x2="698" y2="456.5" gradientUnits="userSpaceOnUse">
<stop stop-color="#CEC8BB"/>
<stop offset="0.638534" stop-color="#858482"/>
</linearGradient>
<radialGradient id="paint2_radial_69_279" cx="0" cy="0" r="1" gradientUnits="userSpaceOnUse" gradientTransform="translate(536 326) rotate(92.4302) scale(566.009 422.172)">
<stop offset="0.175" stop-color="#F2EEE1"/>
<stop offset="0.63" stop-color="#D6C9BE"/>
<stop offset="0.795" stop-color="#C9B0A5"/>
<stop offset="0.925" stop-color="#95979B"/>
<stop offset="1" stop-color="#CCCFD4"/>
</radialGradient>
</defs>
</svg>
